<svg width="271" height="76" viewBox="0 0 271 76" fill="none" xmlns="http://www.w3.org/2000/svg">
<g clip-path="url(#clip0_0_7)">
<path d="M32.0765 0L0 18.3869V56.9675L32.0765 75.3626L64.1531 56.9757V18.3869L32.0765 0ZM22.3041 12.7945L32.093 18.4034L41.8818 12.7945V24.0122L32.093 18.4034L22.3041 24.0122V12.7945ZM53.7565 31.5756V39.8534V54.1179L46.5299 49.979V35.7145L39.3032 39.8534H39.295L32.0765 43.9923L24.8581 39.8534H24.8499L17.6232 35.7145V49.979L10.3965 54.1179V39.8616V31.5756V23.2896L17.6232 27.4285V27.4367L32.0601 35.7145H32.0683H32.0765L46.5299 27.4367V27.4285L53.7565 23.2896V31.5756Z" fill="url(#paint0_linear_0_7)"/>
<path d="M85.3819 16.0549H89.2334L91.8941 23.5362H91.927L94.5959 16.0549H98.431V27.5191H95.8852V18.7239H95.8524L92.8221 27.5191H90.884L87.9605 18.7239H87.9277V27.5191H85.3901V16.0549H85.3819Z" fill="white"/>
<path d="M107.266 16.0549H109.803V27.5191H107.266V16.0549Z" fill="white"/>
<path d="M118.747 16.0549H121.284V25.1868H125.998V27.5191H118.747V16.0549Z" fill="white"/>
<path d="M134.023 16.0549H136.56V25.1868H141.274V27.5191H134.023V16.0549Z" fill="white"/>
<path d="M149.173 16.0549H151.719V27.5191H149.173V16.0549Z" fill="white"/>
<path d="M219.435 16.0878H221.973V27.5191H219.435V16.0878Z" fill="white"/>
<path d="M159.939 21.7869C159.939 20.8671 160.095 20.0377 160.407 19.2904C160.719 18.5431 161.146 17.9108 161.705 17.3852C162.255 16.8596 162.912 16.4654 163.675 16.178C164.439 15.8988 165.269 15.751 166.164 15.751C167.059 15.751 167.897 15.8906 168.652 16.178C169.416 16.4572 170.073 16.8596 170.623 17.3852C171.173 17.9108 171.608 18.5431 171.92 19.2904C172.233 20.0377 172.38 20.8671 172.38 21.7869C172.38 22.6984 172.224 23.5361 171.92 24.2752C171.608 25.0142 171.181 25.6548 170.623 26.1804C170.073 26.7059 169.416 27.1001 168.652 27.3876C167.888 27.6668 167.059 27.8146 166.164 27.8146C165.269 27.8146 164.431 27.675 163.675 27.3876C162.912 27.1083 162.255 26.7059 161.705 26.1804C161.146 25.6548 160.719 25.0225 160.407 24.2752C160.095 23.5361 159.939 22.6984 159.939 21.7869ZM162.575 21.7869C162.575 22.3289 162.657 22.8216 162.83 23.2651C162.994 23.7167 163.24 24.0945 163.552 24.4312C163.864 24.7597 164.242 25.0225 164.686 25.1949C165.129 25.3838 165.614 25.4741 166.156 25.4741C166.698 25.4741 167.19 25.3838 167.626 25.1949C168.069 25.0142 168.439 24.7515 168.759 24.4312C169.079 24.1027 169.317 23.7085 169.481 23.2651C169.646 22.8216 169.736 22.3289 169.736 21.7869C169.736 21.2531 169.654 20.7686 169.481 20.3087C169.309 19.8488 169.071 19.4711 168.759 19.1344C168.447 18.8059 168.069 18.5431 167.626 18.3706C167.182 18.19 166.698 18.0914 166.156 18.0914C165.614 18.0914 165.121 18.1818 164.686 18.3706C164.242 18.5595 163.864 18.8141 163.552 19.1344C163.24 19.4629 162.994 19.857 162.83 20.3087C162.665 20.7686 162.575 21.2531 162.575 21.7869Z" fill="white"/>
<path d="M180.651 16.0549H184.108L189.019 24.0289H189.052V16.0549H191.589V27.5191H188.255L183.213 19.3644H183.18V27.5191H180.643L180.651 16.0549Z" fill="white"/>
<path d="M204.26 16.0549H206.362L211.388 27.5191H208.522L207.528 25.0965H203.045L202.084 27.5191H199.283L204.26 16.0549ZM205.237 19.3973L203.833 22.9613H206.65L205.237 19.3973Z" fill="white"/>
<path d="M230.878 16.0549H235.345C235.928 16.0549 236.486 16.1124 237.012 16.2274C237.538 16.3424 237.997 16.5312 238.4 16.794C238.794 17.0568 239.114 17.4181 239.344 17.8616C239.574 18.3133 239.697 18.8635 239.697 19.5369C239.697 20.3417 239.484 21.0315 239.065 21.6063C238.638 22.173 238.022 22.5261 237.209 22.6821L240.149 27.5273H237.094L234.688 22.9449H233.432V27.5273H230.894L230.878 16.0549ZM233.415 20.8015H234.91C235.14 20.8015 235.378 20.7933 235.632 20.7769C235.887 20.7605 236.117 20.7112 236.322 20.6291C236.527 20.547 236.7 20.4156 236.831 20.2431C236.971 20.0707 237.037 19.8243 237.037 19.5122C237.037 19.2166 236.979 18.9867 236.856 18.8142C236.733 18.6418 236.585 18.5104 236.396 18.4118C236.207 18.3215 236.002 18.2558 235.764 18.2229C235.526 18.1901 235.287 18.1737 235.066 18.1737H233.407V20.7851H233.415V20.8015Z" fill="white"/>
<path d="M248.187 16.0549H256.03V18.3872H250.733V20.5305H255.742V22.8628H250.733V25.195H256.325V27.5273H248.187V16.0549Z" fill="white"/>
<path d="M269.235 18.8552C269.03 18.5924 268.75 18.4035 268.397 18.2803C268.044 18.1571 267.708 18.0914 267.395 18.0914C267.207 18.0914 267.018 18.1161 266.821 18.1571C266.624 18.1982 266.443 18.2721 266.27 18.3624C266.098 18.4528 265.958 18.5759 265.843 18.732C265.737 18.888 265.679 19.0687 265.679 19.2822C265.679 19.6271 265.811 19.8981 266.073 20.0706C266.336 20.2512 266.665 20.4155 267.059 20.5386C267.453 20.67 267.88 20.8014 268.34 20.9328C268.8 21.0642 269.219 21.2449 269.621 21.483C270.015 21.7212 270.344 22.0415 270.606 22.4356C270.869 22.838 271.001 23.3636 271.001 24.037C271.001 24.6776 270.886 25.2278 270.647 25.7041C270.409 26.1804 270.089 26.5663 269.678 26.8866C269.276 27.1987 268.8 27.4368 268.266 27.5846C267.724 27.7407 267.157 27.8146 266.566 27.8146C265.819 27.8146 265.121 27.6996 264.48 27.4697C263.84 27.2397 263.24 26.8702 262.69 26.3693L264.497 24.3901C264.759 24.735 265.088 25.006 265.482 25.1867C265.876 25.3756 266.287 25.4741 266.714 25.4741C266.919 25.4741 267.133 25.4495 267.338 25.4002C267.552 25.3509 267.74 25.277 267.913 25.1785C268.077 25.0799 268.217 24.9568 268.315 24.8007C268.422 24.6447 268.471 24.4722 268.471 24.2669C268.471 23.922 268.34 23.6428 268.069 23.4539C267.806 23.2569 267.469 23.0844 267.067 22.9448C266.665 22.8052 266.229 22.6656 265.761 22.5178C265.293 22.3782 264.858 22.1893 264.456 21.9511C264.053 21.713 263.716 21.4009 263.454 21.0149C263.191 20.6208 263.051 20.1198 263.051 19.4793C263.051 18.8634 263.174 18.3296 263.421 17.8615C263.667 17.3934 263.996 17.0156 264.398 16.6954C264.809 16.3833 265.277 16.1452 265.811 15.9891C266.344 15.8331 266.886 15.751 267.453 15.751C268.102 15.751 268.734 15.8413 269.342 16.0302C269.949 16.2109 270.5 16.5229 270.984 16.9499L269.235 18.8552Z" fill="white"/>
<path d="M138.234 54.9884H121.17V37.5048H116.546V54.9884V59.5789V59.6118L138.234 59.5789V54.9884Z" fill="#FF971D"/>
<path d="M111.538 42.3747V37.4474H91.0565C87.9194 37.4474 85.3819 39.9685 85.3819 43.0809V53.9784C85.3819 57.0908 87.9194 59.6119 91.0565 59.6119H111.538V54.7257H94.2263C92.625 54.7257 91.3193 53.4364 91.3193 51.8351V42.3747H111.538Z" fill="#FF971D"/>
<path d="M163.743 37.5376V51.9417C163.743 53.6334 162.363 54.9966 160.671 54.9966H151.252C149.552 54.9966 148.181 53.6252 148.181 51.9417V37.5376H143.245V54.0111C143.245 57.0907 145.783 59.6118 148.887 59.6118H163.16C166.239 59.6118 168.727 57.14 168.727 54.0851V37.5458L163.743 37.5376Z" fill="#FF971D"/>
<path d="M195.571 47.581C198.322 46.9815 198.955 44.2716 198.889 42.974C198.848 40.1162 196.434 37.5376 193.338 37.5376L174.721 37.5048V54.9802V59.5707V59.6118H176.823C176.831 59.6118 176.84 59.6118 176.856 59.6118H194.98C199.103 59.6118 200.655 55.9902 200.77 54.0111C200.893 51.9499 200.277 48.2955 195.571 47.581ZM179.344 41.5944L191.441 41.619C192.5 41.619 193.543 42.5552 193.543 43.7378C193.543 44.9121 192.5 45.8811 191.441 45.8811H179.344V41.5944ZM193.559 55.0048H179.344V50.6359H193.559C194.775 50.6359 195.752 51.6132 195.752 52.8204C195.752 54.0275 194.767 55.0048 193.559 55.0048Z" fill="#FF971D"/>
</g>
<defs>
<linearGradient id="paint0_linear_0_7" x1="0" y1="37.6864" x2="64.1597" y2="37.6864" gradientUnits="userSpaceOnUse">
<stop stop-color="#FFBA13"/>
<stop offset="1" stop-color="#FF931E"/>
</linearGradient>
<clipPath id="clip0_0_7">
<rect width="271" height="75.3708" fill="white"/>
</clipPath>
</defs>
</svg>
