<svg width="210" height="57" viewBox="0 0 210 57" fill="none" xmlns="http://www.w3.org/2000/svg">
<path d="M45.2498 47.731V29.1202L29.1464 19.8514L20.9126 24.6683L24.7016 26.8578L29.1464 24.2304L41.4608 31.3827V35.2509L27.6891 43.1331L27.5434 42.9871L6.48508 30.8718V14.0127L2.69604 16.2022V33.0613L27.6891 47.5121L41.4608 39.4839V45.5415L25.3574 54.8104L29.1464 56.9999L45.2498 47.731Z" fill="url(#paint0_linear_126_1510)"/>
<path d="M17.2693 51.8911L21.0583 49.6286L3.8619 39.7029L0 41.8924L17.2693 51.8911Z" fill="url(#paint1_linear_126_1510)"/>
<path d="M35.9958 32.4046L32.1339 30.2151L27.6891 32.7695L15.4476 25.6901V21.822L29.1464 13.9398L29.365 14.0128L50.3504 26.201V43.0602L54.2123 40.8707V23.9385L29.1464 9.48784L15.4476 17.516V11.5314L31.551 2.1895L27.6891 0L11.5857 9.26889V27.8796L27.6891 37.2215L35.9958 32.4046Z" fill="url(#paint2_linear_126_1510)"/>
<path d="M53.0466 17.3701L56.8356 15.1806L39.6392 5.18188L35.7773 7.37139L53.0466 17.3701Z" fill="url(#paint3_linear_126_1510)"/>
<path d="M124.528 12.1152H120.812V26.128V29.7772V29.8502L138.081 29.7772V26.128H124.528V12.1152Z" fill="white"/>
<path d="M150.469 12.0422L150.541 12.1152L139.976 29.7772L144.639 29.8502L151.926 17.516L159.14 29.8502L163.876 29.7772L153.237 12.0422H150.469Z" fill="white"/>
<path d="M105.583 12.0422V12.1152L95.0173 29.7772L99.7536 29.8502L107.04 17.516L114.254 29.8502L118.99 29.7772L108.352 12.0422H105.583Z" fill="white"/>
<path d="M186.027 12.0422H180.854L176.263 17.516L171.6 12.0422H166.499L173.64 20.5813L165.843 29.7772L170.944 29.8502L176.263 23.5736L181.509 29.8502L186.61 29.7772L178.813 20.5813L186.027 12.0422Z" fill="white"/>
<path d="M72.2832 16.5672V25.3252C72.2832 27.8066 74.3235 29.8502 76.8009 29.8502H93.1229V29.7772V26.201V22.9897V19.9244H89.0424H83.7232V22.9897H89.0424V26.201H79.2783C77.9668 26.201 76.9466 25.1792 76.9466 23.8655V15.9833H93.05V12.0422H76.728C74.2506 12.0422 72.2832 14.0858 72.2832 16.5672Z" fill="white"/>
<path d="M204.681 12.0422L199.289 18.2458L193.897 12.0422H188.577L196.738 21.2381V29.8502H201.766V21.2381L210 12.0422H204.681Z" fill="white"/>
<path d="M79.56 46.3867V48H72.9867V38.5333H79.44V40.1467H74.8267V42.4267H78.8133V43.92H74.8267V46.3867H79.56ZM86.2611 48V38.5333H89.7011C90.7323 38.5333 91.5945 38.7467 92.2878 39.1733C92.9811 39.5911 93.5011 40.16 93.8478 40.88C94.1945 41.5911 94.3678 42.3822 94.3678 43.2533C94.3678 44.2133 94.1767 45.0489 93.7945 45.76C93.4123 46.4711 92.87 47.0222 92.1678 47.4133C91.4745 47.8044 90.6523 48 89.7011 48H86.2611ZM92.5145 43.2533C92.5145 42.64 92.4034 42.1022 92.1811 41.64C91.9589 41.1689 91.6389 40.8044 91.2211 40.5467C90.8034 40.28 90.2967 40.1467 89.7011 40.1467H88.1011V46.3867H89.7011C90.3056 46.3867 90.8167 46.2533 91.2345 45.9867C91.6523 45.7111 91.9678 45.3378 92.1811 44.8667C92.4034 44.3867 92.5145 43.8489 92.5145 43.2533ZM105.085 48.0667C104.33 48.0667 103.685 47.9422 103.152 47.6933C102.628 47.4356 102.201 47.0844 101.872 46.64C101.552 46.1956 101.317 45.6933 101.165 45.1333C101.014 44.5644 100.939 43.9733 100.939 43.36V38.5333H102.779V43.36C102.779 43.7511 102.814 44.1333 102.885 44.5067C102.965 44.8711 103.094 45.2 103.272 45.4933C103.45 45.7867 103.685 46.0178 103.979 46.1867C104.272 46.3556 104.637 46.44 105.072 46.44C105.517 46.44 105.885 46.3556 106.179 46.1867C106.481 46.0089 106.717 45.7733 106.885 45.48C107.063 45.1867 107.192 44.8578 107.272 44.4933C107.352 44.12 107.392 43.7422 107.392 43.36V38.5333H109.219V43.36C109.219 44.0089 109.139 44.6178 108.979 45.1867C108.828 45.7556 108.583 46.2578 108.245 46.6933C107.917 47.12 107.49 47.4578 106.965 47.7067C106.441 47.9467 105.814 48.0667 105.085 48.0667ZM115.765 43.2C115.765 42.6222 115.868 42.0578 116.072 41.5067C116.285 40.9467 116.592 40.44 116.992 39.9867C117.392 39.5244 117.881 39.16 118.459 38.8933C119.037 38.6178 119.694 38.48 120.432 38.48C121.303 38.48 122.054 38.6711 122.685 39.0533C123.325 39.4356 123.801 39.9333 124.112 40.5467L122.699 41.52C122.539 41.1644 122.33 40.8844 122.072 40.68C121.814 40.4667 121.539 40.32 121.245 40.24C120.952 40.1511 120.663 40.1067 120.379 40.1067C119.917 40.1067 119.512 40.2 119.165 40.3867C118.828 40.5733 118.543 40.8178 118.312 41.12C118.081 41.4222 117.908 41.76 117.792 42.1333C117.685 42.5067 117.632 42.88 117.632 43.2533C117.632 43.6711 117.699 44.0756 117.832 44.4667C117.965 44.8489 118.152 45.1911 118.392 45.4933C118.641 45.7867 118.934 46.0222 119.272 46.2C119.619 46.3689 119.997 46.4533 120.405 46.4533C120.699 46.4533 120.997 46.4044 121.299 46.3067C121.601 46.2089 121.881 46.0533 122.139 45.84C122.397 45.6267 122.597 45.3511 122.739 45.0133L124.245 45.88C124.059 46.3511 123.752 46.7511 123.325 47.08C122.908 47.4089 122.437 47.6578 121.912 47.8267C121.388 47.9956 120.868 48.08 120.352 48.08C119.677 48.08 119.059 47.9422 118.499 47.6667C117.939 47.3822 117.454 47.0089 117.045 46.5467C116.645 46.0756 116.33 45.5511 116.099 44.9733C115.877 44.3867 115.765 43.7956 115.765 43.2ZM133.189 38.5333H135.056L138.536 48H136.643L135.763 45.64H132.456L131.589 48H129.696L133.189 38.5333ZM135.429 44.3467L134.123 40.44L132.763 44.3467H135.429ZM151.035 40.1467H148.009V48H146.182V40.1467H143.155V38.5333H151.035V40.1467ZM157.477 48V38.5333H159.317V48H157.477ZM170.599 48.0667C169.906 48.0667 169.275 47.9333 168.706 47.6667C168.146 47.4 167.661 47.04 167.252 46.5867C166.852 46.1244 166.541 45.6089 166.319 45.04C166.097 44.4622 165.986 43.8711 165.986 43.2667C165.986 42.6356 166.101 42.0356 166.332 41.4667C166.572 40.8889 166.897 40.3778 167.306 39.9333C167.724 39.48 168.212 39.1244 168.772 38.8667C169.341 38.6 169.964 38.4667 170.639 38.4667C171.324 38.4667 171.946 38.6044 172.506 38.88C173.075 39.1556 173.559 39.5244 173.959 39.9867C174.359 40.4489 174.67 40.9644 174.892 41.5333C175.115 42.1022 175.226 42.6889 175.226 43.2933C175.226 43.9156 175.11 44.5156 174.879 45.0933C174.648 45.6622 174.324 46.1733 173.906 46.6267C173.497 47.0711 173.008 47.4222 172.439 47.68C171.879 47.9378 171.266 48.0667 170.599 48.0667ZM167.852 43.2667C167.852 43.6756 167.915 44.0711 168.039 44.4533C168.164 44.8356 168.341 45.1778 168.572 45.48C168.812 45.7733 169.101 46.0089 169.439 46.1867C169.786 46.3556 170.177 46.44 170.612 46.44C171.057 46.44 171.452 46.3511 171.799 46.1733C172.146 45.9867 172.435 45.7422 172.666 45.44C172.897 45.1289 173.07 44.7867 173.186 44.4133C173.31 44.0311 173.372 43.6489 173.372 43.2667C173.372 42.8578 173.306 42.4667 173.172 42.0933C173.048 41.7111 172.866 41.3733 172.626 41.08C172.395 40.7778 172.106 40.5422 171.759 40.3733C171.421 40.1956 171.039 40.1067 170.612 40.1067C170.159 40.1067 169.759 40.2 169.412 40.3867C169.075 40.5644 168.79 40.8044 168.559 41.1067C168.328 41.4089 168.15 41.7467 168.026 42.12C167.91 42.4933 167.852 42.8756 167.852 43.2667ZM183.744 41.92V48H181.904V38.5333H183.371L188.264 44.7733V38.5467H190.104V48H188.571L183.744 41.92Z" fill="url(#paint4_linear_126_1510)"/>
<defs>
<linearGradient id="paint0_linear_126_1510" x1="0.391048" y1="22.0728" x2="42.8291" y2="47.3479" gradientUnits="userSpaceOnUse">
<stop stop-color="#2ECD5B"/>
<stop offset="1" stop-color="#2D8C97"/>
</linearGradient>
<linearGradient id="paint1_linear_126_1510" x1="-1.14066" y1="41.9882" x2="12.5338" y2="56.2027" gradientUnits="userSpaceOnUse">
<stop stop-color="#2ECD5B"/>
<stop offset="1" stop-color="#2D8C97"/>
</linearGradient>
<linearGradient id="paint2_linear_126_1510" x1="9.27675" y1="8.07378" x2="51.7871" y2="33.3923" gradientUnits="userSpaceOnUse">
<stop stop-color="#2ECD5B"/>
<stop offset="1" stop-color="#2D8C97"/>
</linearGradient>
<linearGradient id="paint3_linear_126_1510" x1="34.6367" y1="7.46718" x2="48.3111" y2="21.6817" gradientUnits="userSpaceOnUse">
<stop stop-color="#2ECD5B"/>
<stop offset="1" stop-color="#2D8C97"/>
</linearGradient>
<linearGradient id="paint4_linear_126_1510" x1="65.5" y1="38" x2="73.0897" y2="72.247" gradientUnits="userSpaceOnUse">
<stop stop-color="#2ECD5B"/>
<stop offset="1" stop-color="#2D8C97"/>
</linearGradient>
</defs>
</svg>
